<?xml version="1.0" standalone="no"?>
<!DOCTYPE svg PUBLIC "-//W3C//DTD SVG 20010904//EN"
 "http://www.w3.org/TR/2001/REC-SVG-20010904/DTD/svg10.dtd">
<svg version="1.0" xmlns="http://www.w3.org/2000/svg"
 width="225.000000pt" height="225.000000pt" viewBox="0 0 225.000000 225.000000"
 preserveAspectRatio="xMidYMid meet">
<metadata>
Created by potrace 1.16, written by Peter Selinger 2001-2019
</metadata>
<g transform="translate(0.000000,225.000000) scale(0.100000,-0.100000)"
fill="#000000" stroke="none">
<path d="M1232 2110 c0 -256 -36 -332 -309 -643 -50 -58 -114 -138 -141 -179
-98 -145 -201 -383 -178 -409 8 -9 8 -10 -1 -5 -7 4 -10 -1 -9 -11 2 -10 -2
-22 -8 -26 -7 -6 -6 -7 4 -4 8 2 14 10 13 16 -2 6 2 11 8 11 6 0 9 -9 6 -20
-3 -11 -1 -23 4 -26 5 -3 9 -2 7 3 -1 4 2 22 6 40 7 31 9 32 57 29 32 -3 47 0
42 7 -3 6 -1 7 5 3 15 -9 5 -33 -13 -33 -8 0 -12 4 -9 9 3 4 0 8 -6 8 -8 0 -9
-7 -5 -17 4 -10 8 -23 8 -30 0 -7 4 -10 8 -7 5 2 6 12 3 22 -5 15 -4 14 10 -2
14 -18 15 -17 21 10 10 45 26 97 35 119 5 11 18 42 30 70 38 89 141 236 270
385 61 70 185 229 211 270 47 74 79 142 79 167 0 36 -56 186 -108 288 l-40 80
0 -125z"/>
<path d="M1595 1976 c-132 -39 -99 -246 40 -246 92 0 154 87 124 173 -24 68
-87 95 -164 73z m79 -26 c74 -28 78 -150 5 -180 -82 -34 -162 53 -123 135 21
46 69 64 118 45z"/>
<path d="M1385 1800 c-10 -33 -79 -176 -106 -220 -11 -19 -60 -86 -107 -150
-123 -164 -134 -187 -41 -90 44 47 87 98 95 113 28 52 76 122 70 100 -4 -12
-2 -24 3 -28 7 -4 8 1 4 12 -6 16 -5 17 13 3 17 -13 18 -13 8 0 -6 8 -8 24 -4
35 6 17 8 15 13 -10 3 -17 0 -36 -6 -44 -9 -12 -9 -13 1 -7 7 4 12 1 12 -9 0
-10 -5 -13 -12 -9 -10 6 -10 4 -2 -7 13 -16 12 -20 -11 -128 -23 -103 -90
-236 -191 -380 -82 -116 -109 -180 -84 -196 6 -4 7 1 3 11 -5 13 -3 15 7 9 8
-5 11 -4 6 3 -3 5 -3 12 1 15 5 2 2 2 -4 1 -7 -2 -13 1 -13 6 0 9 13 14 35 11
13 -1 157 193 217 294 106 176 148 356 128 543 -6 56 -15 113 -19 125 -8 22
-8 22 -16 -3z"/>
<path d="M840 1593 c-142 -128 -233 -216 -277 -268 -175 -211 -220 -480 -119
-709 35 -78 110 -188 180 -263 65 -70 89 -82 50 -25 -98 142 -154 335 -154
526 0 210 72 375 288 656 36 47 81 102 101 123 59 63 21 40 -69 -40z"/>
<path d="M1510 1570 c0 -162 -80 -380 -211 -581 -34 -52 -94 -139 -134 -195
-40 -55 -84 -123 -98 -151 -80 -158 -75 -359 13 -551 l39 -82 53 0 c145 0 345
81 454 182 111 104 173 214 214 381 25 101 24 140 -3 91 -31 -59 -189 -216
-202 -202 -3 3 6 27 19 54 53 109 86 265 86 402 0 148 -47 355 -117 522 -35
80 -97 190 -108 190 -3 0 -5 -27 -5 -60z m9 -747 c-3 -227 -51 -410 -145 -550
-24 -36 -42 -68 -40 -71 7 -7 107 28 144 50 18 11 36 18 39 15 9 -9 -64 -103
-105 -135 -51 -40 -115 -71 -192 -93 -36 -11 -68 -19 -71 -19 -7 0 -44 99 -54
145 -12 57 -6 169 13 227 31 94 80 165 207 297 120 125 159 176 184 239 8 17
15 32 18 32 2 0 3 -62 2 -137z"/>
</g>
</svg>
